# xmcd
#
# Track frame offsets:
#	150
#	16466
#	35412
#	51886
#	68848
#	86937
#	105773
#	120873
#	141477
#	156647
#	174689
#	192222
#	207841
#	222947
#	241288
#	270210
#	297809
#	314024
#
# Disc length: 4600 seconds
#
# Revision: 0
# Processed by: cddbd v1.5.2PL0 Copyright (c) Steve Scherf et al.
# Submitted via: EasyCDDAExtractor 15.2.1.1
#
DISCID=0711f612
DTITLE=Helen Terry - Blue Notes
DYEAR=1986
DGENRE=R&B
TTITLE0=Act Of Mercy
TTITLE1=Come On And Find Me
TTITLE2=Love, Money, And Sex
TTITLE3=Right In Front Of You
TTITLE4=Forbidden Fruit
TTITLE5=All Night Makes It Right
TTITLE6=The Perfect Kiss
TTITLE7=Feelin' Your Heart
TTITLE8=Close Watch
TTITLE9=Stuttering
TTITLE10=The River
TTITLE11=Love Lies Lost
TTITLE12=Laughter On My Mind (Live Version)
TTITLE13=Now You're Mine
TTITLE14=Stuttering (Club Mix)
TTITLE15=Act Of Mercy (12" Mix)
TTITLE16=Reach Out
TTITLE17=Come On And Find Me (Alternative Mix)
EXTD=
EXTT0=
EXTT1=
EXTT2=
EXTT3=
EXTT4=
EXTT5=
EXTT6=
EXTT7=
EXTT8=
EXTT9=
EXTT10=
EXTT11=
EXTT12=
EXTT13=
EXTT14=
EXTT15=
EXTT16=
EXTT17=
PLAYORDER=
